<svg width="87" height="26" viewBox="0 0 87 26" fill="none" xmlns="http://www.w3.org/2000/svg">
<path d="M17 17C17 17 19.3657 15.8 21.7314 15.8L23.5145 10.0215C23.5851 9.74462 23.7793 9.56 23.9912 9.56C24.2207 9.56 24.4149 9.74462 24.4855 10.0215L26.2509 15.8C29.0757 15.8 31 17 31 17L26.9748 5.55385C26.8689 5.22154 26.6747 5 26.4098 5H21.5902C21.3253 5 21.1488 5.22154 21.0252 5.55385L17 17Z" fill="#F5F5DC"/>
<path d="M21.7749 20.3805C21.0522 19.6372 20.8274 18.115 21.1325 17C21.6625 17.708 22.3851 17.9204 23.1399 18.0619C24.2961 18.2389 25.4362 18.1681 26.5122 17.5841L26.8976 17.3363C26.9939 17.6549 27.026 17.9912 26.9779 18.3274C26.8976 19.1239 26.5282 19.7434 25.9501 20.2212C25.7253 20.4159 25.4684 20.5752 25.2275 20.7522C24.4888 21.3186 24.2961 21.9558 24.5851 22.8938V23C24.2342 22.8282 23.9378 22.5446 23.734 22.1858C23.5221 21.815 23.4107 21.3852 23.4129 20.9469C23.4129 20.7345 23.4129 20.5044 23.3807 20.292C23.3165 19.7611 23.0917 19.531 22.6581 19.5133C22.4564 19.5006 22.2574 19.569 22.098 19.7057C21.9385 19.8423 21.8295 20.0381 21.7909 20.2566L21.7749 20.3805Z" fill="#E83CBA"/>
<path d="M35.5493 14.605C35.5493 13.0767 36.6626 12.3125 38.8892 12.3125C39.4116 12.3125 39.9341 12.3613 40.4565 12.459V11.8804C40.4565 11.1919 39.9609 10.8477 38.9697 10.8477C38.1299 10.8477 37.1973 10.9697 36.1719 11.2139V9.67578C37.1973 9.43164 38.1299 9.30957 38.9697 9.30957C41.2549 9.30957 42.3975 10.1543 42.3975 11.8438V17H41.2695L40.5811 16.3115C39.9121 16.7705 39.1748 17 38.3691 17C36.4893 17 35.5493 16.2017 35.5493 14.605ZM40.4565 13.7773C39.9683 13.6797 39.4458 13.6309 38.8892 13.6309C37.9565 13.6309 37.4902 13.9482 37.4902 14.583C37.4902 15.2666 37.8809 15.6084 38.6621 15.6084C39.3066 15.6084 39.9048 15.4082 40.4565 15.0078V13.7773ZM44.2358 16.6338V15.0225C45.0903 15.3643 46.0767 15.5352 47.1948 15.5352C48.0298 15.5352 48.4473 15.2666 48.4473 14.7295C48.4473 14.2168 48.1665 13.9604 47.605 13.9604H46.2134C44.6509 13.9604 43.8696 13.1914 43.8696 11.6533C43.8696 10.042 45.0098 9.23633 47.29 9.23633C48.2568 9.23633 49.1675 9.38281 50.022 9.67578V11.2871C49.1675 10.9453 48.2397 10.7744 47.2388 10.7744C46.189 10.7744 45.6641 11.043 45.6641 11.5801C45.6641 12.0928 45.9692 12.3491 46.5796 12.3491H47.8247C49.5337 12.3491 50.3882 13.1182 50.3882 14.6562C50.3882 16.2676 49.2993 17.0732 47.1216 17.0732C46.0522 17.0732 45.0903 16.9268 44.2358 16.6338ZM51.6406 8.06445H53.0762L53.3691 9.30957H55.3027V10.8477H53.5815V14.3853C53.5815 15.103 53.8916 15.4619 54.5117 15.4619H55.3027V17H53.5742C52.2852 17 51.6406 16.3091 51.6406 14.9272V8.06445ZM56.6284 17V9.30957H58.1299L58.3716 10.291C59.0454 9.63672 59.7583 9.30957 60.5103 9.30957V10.877C59.7876 10.877 59.1406 11.1772 58.5693 11.7778V17H56.6284ZM63.1836 13.1255C63.1836 14.7319 63.8062 15.5352 65.0513 15.5352C66.2964 15.5352 66.9189 14.7319 66.9189 13.1255C66.9189 11.5581 66.2964 10.7744 65.0513 10.7744C63.8062 10.7744 63.1836 11.5581 63.1836 13.1255ZM61.2427 13.1548C61.2427 10.5767 62.5122 9.2876 65.0513 9.2876C67.5903 9.2876 68.8599 10.5767 68.8599 13.1548C68.8599 15.728 67.5903 17.0146 65.0513 17.0146C62.522 17.0146 61.2524 15.728 61.2427 13.1548Z" fill="#F5F5DC"/>
</svg>
