<svg width="1728" height="2150" viewBox="0 0 1728 2150" fill="none" xmlns="http://www.w3.org/2000/svg">
<g filter="url(#filter0_i_497_683)">
<path d="M0 200.116V1293.29C0 1293.29 217.32 1279.31 356.826 1279.83C673.569 1281 845.353 1346.3 1161.69 1359.05C1382.56 1367.94 1728 1359.05 1728 1359.05V147C1633.73 210.818 1522.57 173.476 1403.54 210.818C1260.76 255.609 1176.77 196.093 1030.12 210.818C888.83 225.004 812.659 260.245 670.424 260.366C527.306 260.488 451.254 202.74 308.441 210.818C222.404 215.684 174.165 271.063 91.983 248.475C51.9306 237.466 0 200.116 0 200.116Z" fill="#FFAC00"/>
<g filter="url(#filter1_i_497_683)">
<path d="M0 53.1156V1146.29C0 1146.29 217.32 1132.31 356.826 1132.83C673.569 1134 845.353 1199.3 1161.69 1212.05C1382.56 1220.94 1728 1212.05 1728 1212.05V0C1633.73 63.8179 1522.57 26.4765 1403.54 63.8179C1260.76 108.609 1176.77 49.0933 1030.12 63.8179C888.83 78.0037 812.659 113.245 670.424 113.366C527.306 113.488 451.254 55.7404 308.441 63.8179C222.404 68.6842 174.165 124.063 91.983 101.475C51.9306 90.4656 0 53.1156 0 53.1156Z" fill="#FFAC00"/>
</g>
</g>
<path d="M1404.62 1363C1284.62 1359 1727.62 1359 1727.62 1359C1727.62 1359 1726.57 1370.01 1722.62 1391C1717.47 1418.31 1708.27 1403.21 1708.12 1431C1707.96 1460.76 1687.09 1455.72 1674.62 1476C1662.64 1495.47 1675.48 1524.96 1652.62 1525C1622.6 1525.06 1610.6 1514.34 1601.62 1467.5C1596.12 1438.85 1575.84 1438.49 1563.62 1412C1554.62 1392.5 1527.88 1375.72 1502.12 1382.5C1483.12 1387.5 1443.43 1364.29 1404.62 1363Z" fill="#FFAC00"/>
<path d="M1694.94 1516.63C1701.86 1513.36 1700.83 1522.29 1701.93 1527.08C1703.34 1533.23 1704.2 1541.95 1697.94 1542.75C1693.52 1543.31 1690.79 1540.2 1688.46 1536.4C1684.21 1529.48 1685.96 1520.88 1694.94 1516.63Z" fill="#FFAC00"/>
<path d="M1646.12 1561C1651.89 1561.54 1648.13 1568.23 1652.12 1574.59C1655.47 1579.94 1648.78 1583.83 1644.12 1583.5C1639.34 1583.16 1636.47 1577.39 1637.62 1573.09C1639.62 1565.59 1640.37 1560.46 1646.12 1561Z" fill="#FFAC00"/>
<path d="M1622.37 1748.04C1628.15 1748.58 1624.38 1755.27 1628.37 1761.63C1631.73 1766.98 1630.3 1772.57 1625.62 1775.5C1619.22 1779.51 1612.72 1764.43 1613.87 1760.13C1615.87 1752.63 1616.62 1747.5 1622.37 1748.04Z" fill="#FFAC00"/>
<path d="M1578.04 1450.4C1582.56 1448.01 1583.74 1456.99 1584.46 1460.49C1585.38 1464.99 1582.14 1471.39 1578.04 1471.97C1575.14 1472.38 1573.97 1468.19 1574.96 1464.51C1577.3 1455.88 1572.15 1453.5 1578.04 1450.4Z" fill="#FFAC00"/>
<path d="M1607.95 1524.04C1609.87 1524.44 1608.95 1528.62 1609.97 1529.96C1611.3 1531.69 1610.42 1533.65 1608.74 1533.96C1607.56 1534.18 1606.29 1533.54 1606.69 1531.58C1607.65 1526.97 1605.67 1523.57 1607.95 1524.04Z" fill="#FFAC00"/>
<path d="M1674.04 2128.4C1678.56 2126.01 1679.74 2134.99 1680.46 2138.49C1681.38 2142.99 1678.14 2149.39 1674.04 2149.97C1671.14 2150.38 1669.97 2146.19 1670.96 2142.51C1673.3 2133.88 1668.15 2131.5 1674.04 2128.4Z" fill="#FFAC00"/>
<path d="M1697.62 1954.03C1699.06 1954.31 1698.36 1957.24 1699.13 1958.17C1700.13 1959.38 1699.47 1960.75 1698.21 1960.97C1697.32 1961.12 1696.37 1960.68 1696.68 1959.3C1697.39 1956.08 1695.91 1953.7 1697.62 1954.03Z" fill="#FFAC00"/>
<g filter="url(#filter2_i_497_683)">
<path d="M38.1215 1241.5C39.3918 1243.06 39.3918 1243.06 40.217 1245.05C39.4386 1248.8 38.8113 1249.61 36.3187 1252.32C28.8259 1260.72 28.8259 1260.72 24.8056 1270.91C24.455 1273.22 24.455 1273.22 21.606 1276.03C20.4221 1274.74 20.4221 1274.74 19.5105 1272.48C20.5174 1266.24 23.3433 1261.71 26.7951 1256.47C28.3617 1254.19 28.3617 1254.19 28.1501 1251.33C29.8981 1247.25 31.847 1244.31 35.2931 1241.48C36.2265 1241.49 37.1599 1241.5 38.1215 1241.5Z" fill="white"/>
</g>
<g filter="url(#filter3_i_497_683)">
<path d="M89.5682 1012.01C101.364 1007.21 109.606 1027.12 106.982 1039.59C106.485 1041.94 106.559 1043.63 104.926 1045.4C102.603 1047.92 99.8098 1047.4 96.3815 1047.42C86.936 1047.45 79.1255 1041.72 77.3983 1032.43C76.5841 1028.05 76.5925 1024.94 78.8949 1021.13C80.1448 1019.06 81.4592 1018.36 83.1703 1016.65C84.046 1015.78 85.44 1014.44 85.44 1014.44C85.44 1014.44 87.8358 1012.72 89.5682 1012.01Z" fill="white"/>
</g>
<defs>
<filter id="filter0_i_497_683" x="0" y="0" width="1728" height="1367" filterUnits="userSpaceOnUse" color-interpolation-filters="sRGB">
<feFlood flood-opacity="0" result="BackgroundImageFix"/>
<feBlend mode="normal" in="SourceGraphic" in2="BackgroundImageFix" result="shape"/>
<feColorMatrix in="SourceAlpha" type="matrix" values="0 0 0 0 0 0 0 0 0 0 0 0 0 0 0 0 0 0 127 0" result="hardAlpha"/>
<feOffset dy="4"/>
<feGaussianBlur stdDeviation="2"/>
<feComposite in2="hardAlpha" operator="arithmetic" k2="-1" k3="1"/>
<feColorMatrix type="matrix" values="0 0 0 0 0 0 0 0 0 0 0 0 0 0 0 0 0 0 0.25 0"/>
<feBlend mode="normal" in2="shape" result="effect1_innerShadow_497_683"/>
</filter>
<filter id="filter1_i_497_683" x="0" y="0" width="1728" height="1220" filterUnits="userSpaceOnUse" color-interpolation-filters="sRGB">
<feFlood flood-opacity="0" result="BackgroundImageFix"/>
<feBlend mode="normal" in="SourceGraphic" in2="BackgroundImageFix" result="shape"/>
<feColorMatrix in="SourceAlpha" type="matrix" values="0 0 0 0 0 0 0 0 0 0 0 0 0 0 0 0 0 0 127 0" result="hardAlpha"/>
<feOffset dy="4"/>
<feGaussianBlur stdDeviation="2"/>
<feComposite in2="hardAlpha" operator="arithmetic" k2="-1" k3="1"/>
<feColorMatrix type="matrix" values="0 0 0 0 0 0 0 0 0 0 0 0 0 0 0 0 0 0 0.25 0"/>
<feBlend mode="normal" in2="shape" result="effect1_innerShadow_497_683"/>
</filter>
<filter id="filter2_i_497_683" x="19.5105" y="1241.48" width="20.7065" height="38.5496" filterUnits="userSpaceOnUse" color-interpolation-filters="sRGB">
<feFlood flood-opacity="0" result="BackgroundImageFix"/>
<feBlend mode="normal" in="SourceGraphic" in2="BackgroundImageFix" result="shape"/>
<feColorMatrix in="SourceAlpha" type="matrix" values="0 0 0 0 0 0 0 0 0 0 0 0 0 0 0 0 0 0 127 0" result="hardAlpha"/>
<feOffset dy="4"/>
<feGaussianBlur stdDeviation="2"/>
<feComposite in2="hardAlpha" operator="arithmetic" k2="-1" k3="1"/>
<feColorMatrix type="matrix" values="0 0 0 0 0 0 0 0 0 0 0 0 0 0 0 0 0 0 0.25 0"/>
<feBlend mode="normal" in2="shape" result="effect1_innerShadow_497_683"/>
</filter>
<filter id="filter3_i_497_683" x="76.907" y="1011.28" width="30.5637" height="40.175" filterUnits="userSpaceOnUse" color-interpolation-filters="sRGB">
<feFlood flood-opacity="0" result="BackgroundImageFix"/>
<feBlend mode="normal" in="SourceGraphic" in2="BackgroundImageFix" result="shape"/>
<feColorMatrix in="SourceAlpha" type="matrix" values="0 0 0 0 0 0 0 0 0 0 0 0 0 0 0 0 0 0 127 0" result="hardAlpha"/>
<feOffset dy="4"/>
<feGaussianBlur stdDeviation="2"/>
<feComposite in2="hardAlpha" operator="arithmetic" k2="-1" k3="1"/>
<feColorMatrix type="matrix" values="0 0 0 0 0 0 0 0 0 0 0 0 0 0 0 0 0 0 0.25 0"/>
<feBlend mode="normal" in2="shape" result="effect1_innerShadow_497_683"/>
</filter>
</defs>
</svg>
