<svg width="24" height="28" viewBox="0 0 24 28" fill="none" xmlns="http://www.w3.org/2000/svg">
<mask id="mask0_503_89" style="mask-type:luminance" maskUnits="userSpaceOnUse" x="0" y="7" width="24" height="14">
<path d="M0.19165 7.98828H23.8077V20.4336H0.19165V7.98828Z" fill="white"/>
</mask>
<g mask="url(#mask0_503_89)">
<path fill-rule="evenodd" clip-rule="evenodd" d="M22.671 14.4355C16.837 21.2251 7.16291 21.2251 1.32838 14.4355L1.13282 14.2081L1.32838 13.9805C7.16244 7.19093 16.8365 7.19093 22.671 13.9805L22.8668 14.2081L22.671 14.4355ZM23.6972 14.5159C23.8448 14.3443 23.8448 14.0719 23.6972 13.9001L23.237 13.365C17.0931 6.21525 6.90625 6.21525 0.762343 13.365L0.302199 13.9001C0.154801 14.0719 0.154801 14.3443 0.302199 14.5159L0.762343 15.0512C6.90625 22.2009 17.0931 22.2009 23.237 15.051L23.6972 14.5159Z" fill="#969696"/>
</g>
<path fill-rule="evenodd" clip-rule="evenodd" d="M17.51 14.2082C17.51 10.7842 15.0431 8.00879 11.9999 8.00879C8.95629 8.00879 6.48926 10.7841 6.48926 14.2082C6.48926 17.6321 8.95624 20.4072 11.9999 20.4072C15.0433 20.4072 17.51 17.6318 17.51 14.2082ZM16.7229 14.2082C16.7229 17.1428 14.6082 19.5218 11.9997 19.5218C9.39106 19.5218 7.27662 17.1428 7.27662 14.2082C7.27662 11.2735 9.3911 8.89473 11.9997 8.89473C14.6082 8.89473 16.7229 11.2735 16.7229 14.2082Z" fill="#969696"/>
<path fill-rule="evenodd" clip-rule="evenodd" d="M12 15.5366C11.349 15.5366 10.8192 14.9404 10.8192 14.2083C10.8192 13.476 11.3491 12.8799 12 12.8799C12.6507 12.8799 13.1807 13.4761 13.1807 14.2083C13.1807 14.9404 12.6507 15.5366 12 15.5366ZM12 16.4224C13.0856 16.4224 13.968 15.4297 13.968 14.2084C13.968 12.9868 13.0856 11.9944 12 11.9944C10.9142 11.9944 10.032 12.9868 10.032 14.2084C10.032 15.4297 10.9142 16.4224 12 16.4224Z" fill="#969696"/>
</svg>
