<svg width="50" height="50" viewBox="0 0 50 50" fill="none" xmlns="http://www.w3.org/2000/svg">
<path d="M24.875 35.1667C21.3657 35.1667 18.5208 38.0116 18.5208 41.5208C18.5208 45.0301 21.3657 47.875 24.875 47.875C28.3843 47.875 31.2292 45.0301 31.2292 41.5208C31.2292 38.0116 28.3843 35.1667 24.875 35.1667ZM24.875 35.1667V25M8.35417 14.8333C11.8635 14.8333 14.7083 11.9885 14.7083 8.47917C14.7083 4.96986 11.8635 2.125 8.35417 2.125C4.84486 2.125 2 4.96986 2 8.47917C2 11.9885 4.84486 14.8333 8.35417 14.8333ZM8.35417 14.8333V16.8667C8.35417 19.7136 8.35417 21.1372 8.90822 22.2245C9.39556 23.1809 10.1732 23.9587 11.1297 24.4459C12.2171 25 13.6406 25 16.4875 25H33.2625C36.1094 25 37.533 25 38.6203 24.4459C39.5768 23.9587 40.3545 23.1809 40.8418 22.2245C41.3958 21.1372 41.3958 19.7136 41.3958 16.8667V14.8333M41.3958 14.8333C44.9051 14.8333 47.75 11.9885 47.75 8.47917C47.75 4.96986 44.9051 2.125 41.3958 2.125C37.8866 2.125 35.0417 4.96986 35.0417 8.47917C35.0417 11.9885 37.8866 14.8333 41.3958 14.8333Z" stroke="#FBBC05" stroke-width="4" stroke-linecap="round" stroke-linejoin="round"/>
</svg>
