<svg width="47" height="45" viewBox="0 0 47 45" fill="none" xmlns="http://www.w3.org/2000/svg">
<path d="M44.1936 24.8259C44.1936 18.1776 40.4563 13.5257 33.0797 11.0208L23.3427 7.70603C20.8642 6.87738 18.8577 7.61193 18.0906 9.58944C17.4218 11.3598 18.2086 13.0548 20.2544 13.8836L23.4017 15.1453C23.4804 15.1642 23.5394 15.2207 23.5394 15.2961C23.5394 15.3902 23.4607 15.4468 23.3624 15.4468H6.93728C4.45878 15.4468 2.8064 17.0287 2.8064 19.27C2.8064 21.4923 4.45878 23.0743 6.93728 23.0743H13.4877C13.3499 23.5264 13.2909 23.9783 13.2909 24.4116C13.2909 26.0501 14.2548 27.2931 15.8481 27.7828C15.6514 28.3478 15.553 28.894 15.553 29.4213C15.553 31.0033 16.4382 32.1334 17.8743 32.5666C17.9135 36.0696 20.5691 38.1225 25.113 38.1225H29.4013C38.6072 38.1225 44.1936 32.7926 44.1936 24.8259ZM41.4791 24.9201C41.4791 31.5684 36.9942 35.6365 29.0865 35.6365H25.5065C22.3788 35.6365 20.5691 34.6759 20.5691 32.9997H22.8313C23.5591 32.9997 24.0312 32.4535 24.0312 31.8321C24.0312 31.1917 23.5591 30.6078 22.8313 30.6078H19.7627C18.7397 30.6078 18.0906 30.0616 18.0906 29.1011C18.0906 28.7434 18.1889 28.3102 18.3464 27.9899H22.0641C22.7919 27.9899 23.2837 27.4249 23.2837 26.8035C23.2837 26.1631 22.7919 25.5981 22.0641 25.5981H17.5004C16.458 25.5981 15.8285 25.033 15.8285 24.0914C15.8285 23.7147 15.9268 23.2816 16.0841 22.9613H21.3166C22.0051 22.9613 22.5362 22.434 22.5362 21.7937C22.5362 21.1345 22.0051 20.5694 21.3166 20.5694H6.76027C5.93408 20.5694 5.34398 20.0421 5.34398 19.27C5.34398 18.4978 5.93408 17.9516 6.76027 17.9516H27.1589C28.0637 17.9516 28.7128 17.3866 28.7128 16.5955C28.7128 15.9364 28.3981 15.3526 27.4145 14.9382L21.4347 12.3768C20.5888 12.019 20.1364 11.3598 20.4314 10.6441C20.7265 9.89078 21.4937 9.62713 22.5165 9.98496L32.2339 13.3185C38.9416 15.6162 41.4791 19.6466 41.4791 24.9201Z" fill="#FFD3B1"/>
</svg>
