<svg width="22" height="22" viewBox="0 0 22 22" fill="none" xmlns="http://www.w3.org/2000/svg">
<path d="M2.39445 7.90645C2.14195 7.65307 2 7.30967 2 6.95181C2 6.59378 2.14195 6.2506 2.39445 5.99701L5.99416 2.39445C6.24775 2.14195 6.59093 2 6.94896 2C7.30678 2 7.65017 2.14195 7.9036 2.39445L12.2063 6.70001H12.2065C12.459 6.9536 12.601 7.297 12.601 7.65481C12.601 8.01263 12.459 8.35602 12.2065 8.60961L11.7201 9.09607L10.6881 8.06407L11.0958 7.65349L6.9475 3.50539L3.50542 6.94748L7.65351 11.0956L8.06409 10.6878L9.09609 11.7198L8.60963 12.2065C8.35604 12.459 8.01264 12.6009 7.65483 12.6009C7.29702 12.6009 6.95362 12.459 6.70003 12.2065L2.39445 7.90645ZM15.3 9.79623C15.0464 9.54373 14.7032 9.40178 14.3452 9.40178C13.9874 9.40178 13.644 9.54373 13.3906 9.79623L12.9041 10.2827L13.9361 11.3147L14.3467 10.9069L18.4948 15.0525L15.0525 18.4948L10.9044 14.3467L11.3122 13.9361L10.2802 12.9041L9.79369 13.3906C9.54098 13.6439 9.39925 13.9873 9.39925 14.3452C9.39925 14.7032 9.54098 15.0464 9.79369 15.3L14.0936 19.6056C14.3471 19.8583 14.6903 20 15.0484 20C15.4062 20 15.7496 19.8583 16.003 19.6056L19.6056 16.0058C19.8583 15.7522 20 15.4091 20 15.0512C20 14.6932 19.8583 14.35 19.6056 14.0964L15.3 9.79623ZM7.67892 7.68138V7.6816C7.54089 7.81788 7.46327 8.00365 7.46327 8.1975C7.46327 8.39156 7.54089 8.57733 7.67892 8.71361L13.3033 14.338C13.5927 14.594 14.0314 14.5805 14.3046 14.3073C14.5779 14.0341 14.5914 13.5954 14.3354 13.306L8.71096 7.68157C8.57512 7.54311 8.38935 7.46505 8.1955 7.46462C8.00165 7.46396 7.81544 7.54115 7.67895 7.67874L7.67892 7.68138Z" fill="#F5F5DC"/>
</svg>
