<svg width="101" height="31" viewBox="0 0 101 31" fill="none" xmlns="http://www.w3.org/2000/svg">
<g filter="url(#filter0_d_503_64)">
<g clip-path="url(#clip0_503_64)">
<path d="M16.6774 5.45771C15.9336 4.58306 15.293 3.69475 15.1621 3.51025C15.1484 3.49658 15.1277 3.49658 15.1139 3.51025C14.983 3.69475 14.3425 4.58306 13.5986 5.45771C7.21366 13.5277 14.6042 18.9738 14.6042 18.9738L14.6662 19.0148C14.7213 19.8552 14.8591 21.0647 14.8591 21.0647H15.1346H15.4101C15.4101 21.0647 15.5478 19.8621 15.603 19.0148L15.6649 18.967C15.6718 18.9738 23.0624 13.5277 16.6774 5.45771ZM15.1346 18.8508C15.1346 18.8508 14.804 18.5706 14.7144 18.4272V18.4134L15.1139 9.62597C15.1139 9.59863 15.1552 9.59863 15.1552 9.62597L15.5547 18.4134V18.4272C15.4652 18.5706 15.1346 18.8508 15.1346 18.8508Z" fill="#00ED64"/>
</g>
<path d="M31.1377 17.5L27.2998 9.14307V15.7788C27.2998 16.3892 27.3657 16.77 27.4976 16.9214C27.6782 17.1265 27.9639 17.229 28.3545 17.229H28.7061V17.5H25.249V17.229H25.6006C26.0205 17.229 26.3184 17.1021 26.4941 16.8481C26.6016 16.6968 26.6553 16.3403 26.6553 15.7788V9.28955C26.6553 8.85986 26.6064 8.54248 26.5088 8.3374C26.4746 8.26416 26.4282 8.19824 26.3696 8.13965C26.311 8.07617 26.2305 8.02246 26.1279 7.97852C26.0303 7.93457 25.9106 7.90039 25.769 7.87598C25.6274 7.85156 25.4541 7.83936 25.249 7.83936V7.56836H28.0615L31.665 15.3394L35.21 7.56836H38.0225V7.83936H37.6782C37.2534 7.83936 36.9531 7.96631 36.7773 8.22021C36.6699 8.37158 36.6162 8.72803 36.6162 9.28955V15.7788C36.6162 16.3892 36.6846 16.77 36.8213 16.9214C37.002 17.1265 37.2876 17.229 37.6782 17.229H38.0225V17.5H33.8037V17.229H34.1553C34.5752 17.229 34.873 17.1021 35.0488 16.8481C35.1562 16.6968 35.21 16.3403 35.21 15.7788V9.14307L31.3794 17.5H31.1377ZM42.0947 10.5933C42.5684 10.5933 43.0029 10.686 43.3984 10.8716C43.7939 11.0571 44.1333 11.3062 44.4165 11.6187C44.7046 11.9312 44.9268 12.2949 45.083 12.71C45.2441 13.125 45.3247 13.562 45.3247 14.021C45.3247 14.5044 45.2417 14.9683 45.0757 15.4126C44.9146 15.8521 44.6875 16.2427 44.3945 16.5845C44.1016 16.9263 43.7524 17.1997 43.3472 17.4048C42.9419 17.605 42.4976 17.7051 42.0142 17.7051C41.5405 17.7051 41.1084 17.6074 40.7178 17.4121C40.332 17.2168 40 16.958 39.7217 16.6357C39.4434 16.3086 39.2285 15.9351 39.0771 15.5151C38.9258 15.0952 38.8501 14.6606 38.8501 14.2114C38.8501 13.7573 38.9282 13.313 39.0845 12.8784C39.2407 12.4438 39.4604 12.0581 39.7437 11.7212C40.0317 11.3794 40.3735 11.106 40.769 10.9009C41.1694 10.6958 41.6113 10.5933 42.0947 10.5933ZM41.8677 11.0693C41.6528 11.0693 41.4453 11.1157 41.2451 11.2085C41.0498 11.2964 40.874 11.4429 40.7178 11.6479C40.5664 11.8481 40.4443 12.1094 40.3516 12.4316C40.2588 12.749 40.2124 13.1372 40.2124 13.5962C40.2124 14.0698 40.2612 14.5239 40.3589 14.9585C40.4614 15.3931 40.603 15.7764 40.7837 16.1084C40.9692 16.4355 41.1914 16.6968 41.4502 16.8921C41.7139 17.0874 42.0068 17.1851 42.3291 17.1851C42.5635 17.1851 42.7783 17.1411 42.9736 17.0532C43.1738 16.9604 43.3472 16.814 43.4937 16.6138C43.6401 16.4087 43.7549 16.1401 43.8379 15.8081C43.9209 15.4761 43.9624 15.0684 43.9624 14.585C43.9624 14.1016 43.916 13.6475 43.8232 13.2227C43.7305 12.7979 43.5938 12.4268 43.4131 12.1094C43.2373 11.7871 43.0176 11.5332 42.7539 11.3477C42.4951 11.1621 42.1997 11.0693 41.8677 11.0693ZM48.269 12.0142C49.0552 11.0669 49.8047 10.5933 50.5176 10.5933C50.7666 10.5933 50.9961 10.6348 51.2061 10.7178C51.416 10.8008 51.5991 10.9399 51.7554 11.1353C51.9116 11.3306 52.0337 11.5894 52.1216 11.9116C52.2095 12.2339 52.2534 12.6367 52.2534 13.1201V15.9839C52.2534 16.272 52.2681 16.499 52.2974 16.665C52.3315 16.8311 52.3877 16.958 52.4658 17.0459C52.5439 17.1289 52.6489 17.1826 52.7808 17.207C52.9126 17.2266 53.0786 17.2363 53.2788 17.2363V17.5H49.9609V17.2363H50.1001C50.3198 17.2363 50.4907 17.2168 50.6128 17.1777C50.7397 17.1387 50.835 17.0728 50.8984 16.98C50.9619 16.8823 51.001 16.7529 51.0156 16.5918C51.0352 16.4307 51.0449 16.228 51.0449 15.9839V13.2373C51.0449 12.627 50.9644 12.1851 50.8032 11.9116C50.647 11.6333 50.3809 11.4941 50.0049 11.4941C49.4238 11.4941 48.8452 11.8115 48.269 12.4463V15.9839C48.269 16.4282 48.2959 16.709 48.3496 16.8262C48.3838 16.8994 48.4204 16.9629 48.4595 17.0166C48.5034 17.0703 48.5596 17.1143 48.6279 17.1484C48.7012 17.1777 48.7939 17.1997 48.9062 17.2144C49.0234 17.229 49.1748 17.2363 49.3604 17.2363V17.5H46.0425V17.2363H46.189C46.3647 17.2363 46.5088 17.2168 46.6211 17.1777C46.7334 17.1387 46.8213 17.0703 46.8848 16.9727C46.9531 16.875 46.9995 16.748 47.0239 16.5918C47.0483 16.4307 47.0605 16.228 47.0605 15.9839V13.4937C47.0605 12.6978 47.041 12.207 47.002 12.0215C46.9678 11.8457 46.9116 11.7261 46.8335 11.6626C46.7603 11.5991 46.6602 11.5674 46.5332 11.5674C46.3965 11.5674 46.2329 11.604 46.0425 11.6772L45.9326 11.4136L47.9541 10.5933H48.269V12.0142ZM55.6079 15.0537C55.1929 14.8486 54.8755 14.5703 54.6558 14.2188C54.4409 13.8623 54.3335 13.4644 54.3335 13.0249C54.3335 12.6929 54.3994 12.3804 54.5312 12.0874C54.6631 11.7896 54.8486 11.5308 55.0879 11.311C55.3271 11.0913 55.6079 10.918 55.9302 10.791C56.2573 10.6592 56.6162 10.5933 57.0068 10.5933C57.6514 10.5933 58.2056 10.7495 58.6694 11.062H60.0903C60.1978 11.062 60.2783 11.0645 60.332 11.0693C60.3906 11.0693 60.4321 11.0742 60.4565 11.084C60.4858 11.0889 60.5029 11.0962 60.5078 11.106C60.5127 11.1157 60.52 11.1279 60.5298 11.1426C60.5591 11.1865 60.5737 11.2646 60.5737 11.377C60.5737 11.4502 60.5713 11.5112 60.5664 11.5601C60.5664 11.604 60.5518 11.6382 60.5225 11.6626C60.498 11.687 60.4517 11.7041 60.3833 11.7139C60.3198 11.7188 60.2222 11.7212 60.0903 11.7212H59.2188C59.4922 12.0776 59.6289 12.5269 59.6289 13.0688C59.6289 13.3765 59.5654 13.6694 59.4385 13.9478C59.3164 14.2212 59.1406 14.4604 58.9111 14.6655C58.6816 14.8706 58.4033 15.0342 58.0762 15.1562C57.749 15.2783 57.3853 15.3394 56.9849 15.3394C56.6577 15.3394 56.3184 15.2905 55.9668 15.1929C55.7471 15.3784 55.6006 15.542 55.5273 15.6836C55.4541 15.8203 55.4175 15.9375 55.4175 16.0352C55.4175 16.1084 55.4321 16.1719 55.4614 16.2256C55.4907 16.2793 55.5591 16.3257 55.6665 16.3647C55.7788 16.3989 55.9424 16.4282 56.1572 16.4526C56.3721 16.4722 56.665 16.4868 57.0361 16.4966C57.5391 16.5112 57.9517 16.5259 58.2739 16.5405C58.6011 16.5552 58.8403 16.5747 58.9917 16.5991C59.2163 16.6284 59.4214 16.687 59.6069 16.7749C59.7925 16.8628 59.9487 16.9727 60.0757 17.1045C60.2075 17.2363 60.3076 17.3877 60.376 17.5586C60.4492 17.7295 60.4858 17.915 60.4858 18.1152C60.4858 18.667 60.2271 19.1846 59.7095 19.668C58.9429 20.3809 57.9492 20.7373 56.7285 20.7373C56.3916 20.7373 56.0498 20.7007 55.7031 20.6274C55.3564 20.5542 55.0415 20.4541 54.7583 20.3271C54.4751 20.2051 54.2432 20.0586 54.0625 19.8877C53.8818 19.7168 53.7915 19.5337 53.7915 19.3384C53.7915 19.2651 53.8013 19.1895 53.8208 19.1113C53.8452 19.0381 53.8794 18.9575 53.9233 18.8696C53.9722 18.7866 54.0332 18.6938 54.1064 18.5913C54.1846 18.4888 54.2773 18.3691 54.3848 18.2324C54.4189 18.1885 54.668 17.9248 55.1318 17.4414C54.8779 17.29 54.6973 17.1558 54.5898 17.0386C54.4873 16.9165 54.436 16.7798 54.436 16.6284C54.436 16.5405 54.4482 16.4502 54.4727 16.3574C54.4971 16.2598 54.5508 16.1499 54.6338 16.0278C54.7168 15.9058 54.834 15.7666 54.9854 15.6104C55.1416 15.4541 55.3491 15.2686 55.6079 15.0537ZM56.8823 10.9448C56.7065 10.9448 56.5405 10.9814 56.3843 11.0547C56.228 11.123 56.0913 11.2305 55.9741 11.377C55.8618 11.5186 55.7715 11.7017 55.7031 11.9263C55.6396 12.146 55.6079 12.4048 55.6079 12.7026C55.6079 13.0347 55.6396 13.3398 55.7031 13.6182C55.7715 13.8965 55.8691 14.1382 55.9961 14.3433C56.123 14.5435 56.2769 14.6997 56.4575 14.812C56.6382 14.9243 56.8433 14.9805 57.0728 14.9805C57.2583 14.9805 57.4292 14.9463 57.5854 14.8779C57.7417 14.8096 57.876 14.7046 57.9883 14.563C58.1006 14.4214 58.1885 14.2432 58.252 14.0283C58.3154 13.8086 58.3472 13.5498 58.3472 13.252C58.3472 12.9248 58.313 12.6221 58.2446 12.3438C58.1812 12.0605 58.0859 11.8164 57.959 11.6113C57.8369 11.4014 57.6855 11.2378 57.5049 11.1206C57.3242 11.0034 57.1167 10.9448 56.8823 10.9448ZM55.5347 17.5C55.0708 18.0029 54.8389 18.4326 54.8389 18.7891C54.8389 18.9502 54.9048 19.0967 55.0366 19.2285C55.1733 19.3604 55.3564 19.4727 55.5859 19.5654C55.8154 19.6582 56.084 19.729 56.3916 19.7778C56.7041 19.8315 57.0337 19.8584 57.3804 19.8584C57.8198 19.8584 58.2007 19.8145 58.5229 19.7266C58.8501 19.6387 59.1187 19.5239 59.3286 19.3823C59.5386 19.2456 59.6948 19.0894 59.7974 18.9136C59.8999 18.7427 59.9512 18.5718 59.9512 18.4009C59.9512 18.2739 59.9243 18.1665 59.8706 18.0786C59.8169 17.9907 59.7192 17.9175 59.5776 17.8589C59.4409 17.8052 59.2505 17.7612 59.0063 17.7271C58.7622 17.6978 58.4497 17.6782 58.0688 17.6685C57.5171 17.6538 57.0312 17.6318 56.6113 17.6025C56.1914 17.5732 55.8325 17.5391 55.5347 17.5ZM64.5947 10.5933C65.0684 10.5933 65.5029 10.686 65.8984 10.8716C66.2939 11.0571 66.6333 11.3062 66.9165 11.6187C67.2046 11.9312 67.4268 12.2949 67.583 12.71C67.7441 13.125 67.8247 13.562 67.8247 14.021C67.8247 14.5044 67.7417 14.9683 67.5757 15.4126C67.4146 15.8521 67.1875 16.2427 66.8945 16.5845C66.6016 16.9263 66.2524 17.1997 65.8472 17.4048C65.4419 17.605 64.9976 17.7051 64.5142 17.7051C64.0405 17.7051 63.6084 17.6074 63.2178 17.4121C62.832 17.2168 62.5 16.958 62.2217 16.6357C61.9434 16.3086 61.7285 15.9351 61.5771 15.5151C61.4258 15.0952 61.3501 14.6606 61.3501 14.2114C61.3501 13.7573 61.4282 13.313 61.5845 12.8784C61.7407 12.4438 61.9604 12.0581 62.2437 11.7212C62.5317 11.3794 62.8735 11.106 63.269 10.9009C63.6694 10.6958 64.1113 10.5933 64.5947 10.5933ZM64.3677 11.0693C64.1528 11.0693 63.9453 11.1157 63.7451 11.2085C63.5498 11.2964 63.374 11.4429 63.2178 11.6479C63.0664 11.8481 62.9443 12.1094 62.8516 12.4316C62.7588 12.749 62.7124 13.1372 62.7124 13.5962C62.7124 14.0698 62.7612 14.5239 62.8589 14.9585C62.9614 15.3931 63.103 15.7764 63.2837 16.1084C63.4692 16.4355 63.6914 16.6968 63.9502 16.8921C64.2139 17.0874 64.5068 17.1851 64.8291 17.1851C65.0635 17.1851 65.2783 17.1411 65.4736 17.0532C65.6738 16.9604 65.8472 16.814 65.9937 16.6138C66.1401 16.4087 66.2549 16.1401 66.3379 15.8081C66.4209 15.4761 66.4624 15.0684 66.4624 14.585C66.4624 14.1016 66.416 13.6475 66.3232 13.2227C66.2305 12.7979 66.0938 12.4268 65.9131 12.1094C65.7373 11.7871 65.5176 11.5332 65.2539 11.3477C64.9951 11.1621 64.6997 11.0693 64.3677 11.0693Z" fill="#F5F5DC"/>
<path d="M68.6011 17.5V17.229H68.9746C69.3896 17.229 69.6875 17.0947 69.8682 16.8262C69.9756 16.6699 70.0293 16.3086 70.0293 15.7422V9.32617C70.0293 8.70117 69.9609 8.31299 69.8242 8.16162C69.6338 7.94678 69.3506 7.83936 68.9746 7.83936H68.6011V7.56836H72.644C74.1284 7.56836 75.2563 7.73682 76.0278 8.07373C76.8042 8.41064 77.4268 8.97217 77.8955 9.7583C78.3691 10.5396 78.606 11.4478 78.606 12.4829C78.606 13.2153 78.4863 13.8892 78.2471 14.5044C78.0127 15.1196 77.6611 15.6494 77.1924 16.0938C76.7285 16.5332 76.1475 16.8774 75.4492 17.1265C74.7559 17.3755 73.9526 17.5 73.0396 17.5H68.6011ZM71.4355 16.7822C72.0459 16.9189 72.5659 16.9873 72.9956 16.9873C73.5571 16.9873 74.0771 16.8848 74.5557 16.6797C75.0391 16.4697 75.4565 16.1743 75.8081 15.7935C76.1597 15.4077 76.4355 14.9414 76.6357 14.3945C76.8359 13.8477 76.936 13.2349 76.936 12.5562C76.936 11.8726 76.8359 11.2573 76.6357 10.7104C76.4404 10.1636 76.1646 9.69971 75.8081 9.31885C75.4565 8.93311 75.0342 8.6377 74.541 8.43262C74.0527 8.22754 73.5181 8.125 72.937 8.125C72.7173 8.125 72.4829 8.14453 72.2339 8.18359C71.9849 8.21777 71.7188 8.26904 71.4355 8.3374V16.7822ZM86.1133 12.4316C86.5186 12.5195 86.8628 12.6392 87.146 12.7905C87.4341 12.9419 87.6685 13.1201 87.8491 13.3252C88.0298 13.5303 88.1616 13.7573 88.2446 14.0063C88.3276 14.2505 88.3691 14.5093 88.3691 14.7827C88.3691 15.0269 88.3276 15.271 88.2446 15.5151C88.1665 15.7544 88.0518 15.9814 87.9004 16.1963C87.749 16.4062 87.5635 16.5991 87.3438 16.7749C87.1289 16.9458 86.8848 17.085 86.6113 17.1924C86.0693 17.3975 85.2393 17.5 84.1211 17.5H79.4336V17.229H79.8071C80.2173 17.229 80.5151 17.0972 80.7007 16.8335C80.813 16.6626 80.8691 16.2988 80.8691 15.7422V9.32617C80.8691 8.71582 80.7983 8.32764 80.6567 8.16162C80.4663 7.94678 80.1831 7.83936 79.8071 7.83936H79.4336V7.56836H83.7256C84.5264 7.56836 85.1685 7.62695 85.6519 7.74414C86.0181 7.83203 86.3403 7.95654 86.6187 8.11768C86.9019 8.27881 87.1387 8.4668 87.3291 8.68164C87.5195 8.89648 87.6636 9.13574 87.7612 9.39941C87.8589 9.6582 87.9077 9.93164 87.9077 10.2197C87.9077 10.7178 87.7563 11.1646 87.4536 11.5601C87.1509 11.9507 86.7041 12.2412 86.1133 12.4316ZM82.2754 12.0361C82.6465 12.1045 83.1079 12.1387 83.6597 12.1387C84.3774 12.1387 84.9121 12.063 85.2637 11.9116C85.4443 11.8335 85.603 11.7334 85.7397 11.6113C85.8813 11.4893 85.9985 11.3525 86.0913 11.2012C86.1841 11.0498 86.2549 10.8862 86.3037 10.7104C86.3525 10.5347 86.377 10.3516 86.377 10.1611C86.377 9.87793 86.3159 9.60938 86.1938 9.35547C86.0767 9.09668 85.9009 8.87207 85.6665 8.68164C85.4321 8.49121 85.1416 8.33984 84.7949 8.22754C84.4482 8.11523 84.0479 8.05908 83.5938 8.05908C83.0957 8.05908 82.6562 8.11279 82.2754 8.22021V12.0361ZM82.2754 16.7822C82.8369 16.9141 83.396 16.98 83.9526 16.98C84.397 16.98 84.7876 16.9263 85.1245 16.8188C85.4663 16.7114 85.752 16.5649 85.9814 16.3794C86.2109 16.189 86.3818 15.9692 86.4941 15.7202C86.6113 15.4663 86.6699 15.1953 86.6699 14.9072C86.6699 14.5898 86.6064 14.2944 86.4795 14.021C86.3574 13.7427 86.167 13.5034 85.9082 13.3032C85.6543 13.0981 85.332 12.937 84.9414 12.8198C84.5557 12.7026 84.0991 12.644 83.5718 12.644C83.2642 12.644 83.0029 12.6489 82.7881 12.6587C82.5781 12.6685 82.4072 12.6855 82.2754 12.71V16.7822Z" fill="#00ED64"/>
</g>
<defs>
<filter id="filter0_d_503_64" x="-4" y="0" width="109" height="34" filterUnits="userSpaceOnUse" color-interpolation-filters="sRGB">
<feFlood flood-opacity="0" result="BackgroundImageFix"/>
<feColorMatrix in="SourceAlpha" type="matrix" values="0 0 0 0 0 0 0 0 0 0 0 0 0 0 0 0 0 0 127 0" result="hardAlpha"/>
<feOffset dy="4"/>
<feGaussianBlur stdDeviation="2"/>
<feComposite in2="hardAlpha" operator="out"/>
<feColorMatrix type="matrix" values="0 0 0 0 0 0 0 0 0 0 0 0 0 0 0 0 0 0 0.25 0"/>
<feBlend mode="normal" in2="BackgroundImageFix" result="effect1_dropShadow_503_64"/>
<feBlend mode="normal" in="SourceGraphic" in2="effect1_dropShadow_503_64" result="shape"/>
</filter>
<clipPath id="clip0_503_64">
<rect width="10" height="19" fill="white" transform="translate(11 3.5)"/>
</clipPath>
</defs>
</svg>
