<svg width="87" height="31" viewBox="0 0 87 31" fill="none" xmlns="http://www.w3.org/2000/svg">
<g filter="url(#filter0_d_503_116)">
<g clip-path="url(#clip0_503_116)">
<path d="M21.5 15C22.6046 15 23.5 14.1046 23.5 13C23.5 11.8954 22.6046 11 21.5 11C20.3954 11 19.5 11.8954 19.5 13C19.5 14.1046 20.3954 15 21.5 15Z" fill="#58C4DC"/>
<path d="M21.5 17.5C27.0228 17.5 31.5 15.4853 31.5 13C31.5 10.5147 27.0228 8.5 21.5 8.5C15.9772 8.5 11.5 10.5147 11.5 13C11.5 15.4853 15.9772 17.5 21.5 17.5Z" stroke="#58C4DC"/>
<path d="M17.603 15.2501C20.3644 20.033 24.3478 22.903 26.5001 21.6604C28.6524 20.4177 28.1586 15.533 25.3972 10.7501C22.6358 5.96717 18.6524 3.0972 16.5001 4.33984C14.3478 5.58248 14.8416 10.4672 17.603 15.2501Z" stroke="#58C4DC"/>
<path d="M17.603 10.7501C14.8416 15.533 14.3478 20.4177 16.5001 21.6604C18.6524 22.903 22.6358 20.033 25.3972 15.2501C28.1586 10.4672 28.6524 5.58248 26.5001 4.33984C24.3478 3.0972 20.3644 5.96717 17.603 10.7501Z" stroke="#58C4DC"/>
</g>
<path d="M37.065 18V7.5H41.82C42.52 7.5 43.13 7.63 43.65 7.89C44.18 8.15 44.59 8.515 44.88 8.985C45.18 9.445 45.33 9.985 45.33 10.605C45.33 11.295 45.135 11.89 44.745 12.39C44.355 12.89 43.83 13.25 43.17 13.47L45.51 18H43.77L41.595 13.695H38.64V18H37.065ZM38.64 12.375H41.7C42.32 12.375 42.815 12.22 43.185 11.91C43.565 11.59 43.755 11.16 43.755 10.62C43.755 10.1 43.565 9.68 43.185 9.36C42.815 9.04 42.32 8.88 41.7 8.88H38.64V12.375ZM49.9786 18.135C49.2286 18.135 48.5486 17.96 47.9386 17.61C47.3386 17.26 46.8586 16.785 46.4986 16.185C46.1486 15.585 45.9736 14.915 45.9736 14.175C45.9736 13.445 46.1436 12.785 46.4836 12.195C46.8236 11.595 47.2836 11.12 47.8636 10.77C48.4436 10.41 49.0886 10.23 49.7986 10.23C50.5086 10.23 51.1386 10.41 51.6886 10.77C52.2386 11.12 52.6736 11.6 52.9936 12.21C53.3236 12.81 53.4886 13.49 53.4886 14.25V14.67H47.4736C47.5536 15.09 47.7086 15.465 47.9386 15.795C48.1786 16.125 48.4786 16.385 48.8386 16.575C49.2086 16.765 49.6086 16.86 50.0386 16.86C50.4086 16.86 50.7636 16.805 51.1036 16.695C51.4536 16.575 51.7436 16.405 51.9736 16.185L52.9336 17.13C52.4836 17.47 52.0186 17.725 51.5386 17.895C51.0686 18.055 50.5486 18.135 49.9786 18.135ZM47.4886 13.545H52.0036C51.9436 13.145 51.8036 12.795 51.5836 12.495C51.3736 12.185 51.1086 11.945 50.7886 11.775C50.4786 11.595 50.1386 11.505 49.7686 11.505C49.3886 11.505 49.0386 11.59 48.7186 11.76C48.3986 11.93 48.1286 12.17 47.9086 12.48C47.6986 12.78 47.5586 13.135 47.4886 13.545ZM57.2297 18.135C56.6797 18.135 56.1947 18.04 55.7747 17.85C55.3547 17.65 55.0247 17.375 54.7847 17.025C54.5447 16.675 54.4247 16.27 54.4247 15.81C54.4247 15.09 54.6997 14.525 55.2497 14.115C55.7997 13.695 56.5547 13.485 57.5147 13.485C58.2647 13.485 58.9597 13.63 59.5997 13.92V13.11C59.5997 12.56 59.4397 12.15 59.1197 11.88C58.8097 11.61 58.3497 11.475 57.7397 11.475C57.3897 11.475 57.0247 11.53 56.6447 11.64C56.2647 11.74 55.8397 11.9 55.3697 12.12L54.8147 10.995C55.3947 10.725 55.9347 10.53 56.4347 10.41C56.9347 10.28 57.4397 10.215 57.9497 10.215C58.9397 10.215 59.7047 10.45 60.2447 10.92C60.7947 11.39 61.0697 12.06 61.0697 12.93V18H59.5997V17.34C59.2597 17.61 58.8947 17.81 58.5047 17.94C58.1147 18.07 57.6897 18.135 57.2297 18.135ZM55.8647 15.78C55.8647 16.15 56.0197 16.45 56.3297 16.68C56.6497 16.91 57.0647 17.025 57.5747 17.025C57.9747 17.025 58.3397 16.965 58.6697 16.845C59.0097 16.725 59.3197 16.54 59.5997 16.29V15C59.3097 14.83 59.0047 14.71 58.6847 14.64C58.3747 14.56 58.0247 14.52 57.6347 14.52C57.0847 14.52 56.6497 14.635 56.3297 14.865C56.0197 15.085 55.8647 15.39 55.8647 15.78ZM66.3831 18.135C65.6531 18.135 64.9881 17.96 64.3881 17.61C63.7881 17.26 63.3131 16.785 62.9631 16.185C62.6231 15.585 62.4531 14.915 62.4531 14.175C62.4531 13.435 62.6281 12.77 62.9781 12.18C63.3281 11.58 63.7981 11.105 64.3881 10.755C64.9881 10.395 65.6531 10.215 66.3831 10.215C66.9631 10.215 67.5181 10.325 68.0481 10.545C68.5881 10.765 69.0531 11.075 69.4431 11.475L68.5131 12.51C68.2231 12.19 67.8981 11.95 67.5381 11.79C67.1781 11.63 66.8031 11.55 66.4131 11.55C65.9531 11.55 65.5331 11.665 65.1531 11.895C64.7831 12.125 64.4881 12.44 64.2681 12.84C64.0481 13.24 63.9381 13.685 63.9381 14.175C63.9381 14.665 64.0481 15.11 64.2681 15.51C64.4881 15.91 64.7881 16.23 65.1681 16.47C65.5481 16.7 65.9731 16.815 66.4431 16.815C66.8331 16.815 67.1981 16.74 67.5381 16.59C67.8781 16.43 68.1981 16.2 68.4981 15.9L69.4131 16.86C69.0131 17.27 68.5481 17.585 68.0181 17.805C67.4981 18.025 66.9531 18.135 66.3831 18.135ZM74.0368 18.135C73.2968 18.135 72.7318 17.965 72.3418 17.625C71.9518 17.275 71.7568 16.77 71.7568 16.11V11.625H70.1368V10.365H71.7568V8.415L73.2418 8.055V10.365H75.4918V11.625H73.2418V15.765C73.2418 16.155 73.3268 16.435 73.4968 16.605C73.6768 16.765 73.9668 16.845 74.3668 16.845C74.5768 16.845 74.7618 16.83 74.9218 16.8C75.0918 16.77 75.2718 16.725 75.4618 16.665V17.925C75.2618 17.995 75.0268 18.045 74.7568 18.075C74.4968 18.115 74.2568 18.135 74.0368 18.135Z" fill="#F5F5DC"/>
</g>
<defs>
<filter id="filter0_d_503_116" x="-4" y="0" width="95" height="34" filterUnits="userSpaceOnUse" color-interpolation-filters="sRGB">
<feFlood flood-opacity="0" result="BackgroundImageFix"/>
<feColorMatrix in="SourceAlpha" type="matrix" values="0 0 0 0 0 0 0 0 0 0 0 0 0 0 0 0 0 0 127 0" result="hardAlpha"/>
<feOffset dy="4"/>
<feGaussianBlur stdDeviation="2"/>
<feComposite in2="hardAlpha" operator="out"/>
<feColorMatrix type="matrix" values="0 0 0 0 0 0 0 0 0 0 0 0 0 0 0 0 0 0 0.25 0"/>
<feBlend mode="normal" in2="BackgroundImageFix" result="effect1_dropShadow_503_116"/>
<feBlend mode="normal" in="SourceGraphic" in2="effect1_dropShadow_503_116" result="shape"/>
</filter>
<clipPath id="clip0_503_116">
<rect width="21" height="18.9" fill="white" transform="translate(11 3.55005)"/>
</clipPath>
</defs>
</svg>
