<svg width="49" height="77" viewBox="0 0 49 77" fill="none" xmlns="http://www.w3.org/2000/svg">
<g filter="url(#filter0_d_151_139)">
<path d="M16.8132 20.6749C17.2927 20.6769 17.7521 20.8859 18.0918 21.2566L32.5676 37.1231C32.9094 37.4932 33.1016 37.998 33.1016 38.5246C33.1016 39.0514 32.9094 39.556 32.5676 39.9263L18.0918 55.7929C17.63 56.2646 16.9772 56.4381 16.3694 56.2511C15.7616 56.0642 15.2865 55.5435 15.116 54.8776C14.9457 54.2114 15.104 53.4959 15.5344 52.9897L28.7314 38.5248L15.5344 24.06C15.1926 23.6899 15.0002 23.185 15.0002 22.6585C15.0002 22.1316 15.1926 21.6271 15.5344 21.2568C15.8741 20.8861 16.3338 20.6769 16.8132 20.6749Z" fill="black"/>
</g>
<defs>
<filter id="filter0_d_151_139" x="-3.99976" y="0.675049" width="56.1013" height="83.6499" filterUnits="userSpaceOnUse" color-interpolation-filters="sRGB">
<feFlood flood-opacity="0" result="BackgroundImageFix"/>
<feColorMatrix in="SourceAlpha" type="matrix" values="0 0 0 0 0 0 0 0 0 0 0 0 0 0 0 0 0 0 127 0" result="hardAlpha"/>
<feOffset dy="4"/>
<feGaussianBlur stdDeviation="2"/>
<feComposite in2="hardAlpha" operator="out"/>
<feColorMatrix type="matrix" values="0 0 0 0 0 0 0 0 0 0 0 0 0 0 0 0 0 0 0.25 0"/>
<feBlend mode="normal" in2="BackgroundImageFix" result="effect1_dropShadow_151_139"/>
<feBlend mode="normal" in="SourceGraphic" in2="effect1_dropShadow_151_139" result="shape"/>
</filter>
</defs>
</svg>
