<svg width="131" height="27" viewBox="0 0 131 27" fill="none" xmlns="http://www.w3.org/2000/svg">
<g filter="url(#filter0_d_503_55)">
<g clip-path="url(#clip0_503_55)">
<path fill-rule="evenodd" clip-rule="evenodd" d="M20.0002 7C17.6 7 16.1002 8.33342 15.4999 11.0003C16.4 9.66684 17.4501 9.16691 18.65 9.50007C19.3346 9.6901 19.8242 10.2421 20.3656 10.8532C21.2481 11.8483 22.2695 13 24.5001 13C26.8999 13 28.4 11.6666 29 9.00013C28.1002 10.3336 27.0502 10.8335 25.8503 10.4999C25.1653 10.3099 24.6757 9.75792 24.1343 9.14719C23.2518 8.15127 22.2307 7 20.0002 7ZM15.4999 13C13.1001 13 11.6 14.3334 11 17.0003C11.9001 15.6668 12.9501 15.1669 14.1497 15.5001C14.8347 15.6901 15.3243 16.2421 15.8657 16.8532C16.7482 17.8483 17.7693 19 20.0002 19C22.4 19 23.9001 17.667 24.5001 15.0001C23.6 16.3336 22.5499 16.8335 21.35 16.5003C20.6654 16.3099 20.1758 15.7579 19.6344 15.1472C18.7519 14.1521 17.7305 13 15.4999 13Z" fill="#38BDF8"/>
</g>
<path d="M41.313 8.02637V9.125H38.0171V18.5H36.6621V9.125H33.3662V8.02637H41.313ZM42.4189 16.1782C42.4189 14.6011 43.459 13.8125 45.5391 13.8125C46.208 13.8125 46.877 13.8613 47.5459 13.959V13.2339C47.5459 12.3501 46.855 11.9082 45.4731 11.9082C44.6821 11.9082 43.8716 12.0303 43.0415 12.2744V11.1758C43.8716 10.9316 44.6821 10.8096 45.4731 10.8096C47.7583 10.8096 48.9009 11.6055 48.9009 13.1973V18.5H48.1392L47.6704 17.7383C46.9038 18.2461 46.0688 18.5 45.1655 18.5C43.3345 18.5 42.4189 17.7261 42.4189 16.1782ZM45.5391 14.9111C44.3623 14.9111 43.7739 15.3262 43.7739 16.1562C43.7739 16.9863 44.2378 17.4014 45.1655 17.4014C46.103 17.4014 46.8965 17.1523 47.5459 16.6543V15.0576C46.877 14.96 46.208 14.9111 45.5391 14.9111ZM52.6069 10.8096V18.5H51.252V10.8096H52.6069ZM52.6069 8.02637V9.30811H51.252V8.02637H52.6069ZM56.3862 8.02637V18.5H55.0312V8.02637H56.3862ZM57.8218 10.8096H59.1914L60.5537 16.8374L62.5532 10.8096H63.7764L65.915 16.8374L67.1455 10.8096H68.5811L66.5742 18.5H65.3364L63.1318 12.7505L61.0371 18.5H59.77L57.8218 10.8096ZM71.4448 10.8096V18.5H70.0898V10.8096H71.4448ZM71.4448 8.02637V9.30811H70.0898V8.02637H71.4448ZM73.7959 18.5V10.8096H74.7114L74.9531 11.791C75.7393 11.1367 76.6035 10.8096 77.5459 10.8096C79.4648 10.8096 80.4243 11.7642 80.4243 13.6733V18.5H79.0693V13.6514C79.0693 12.5088 78.5005 11.9375 77.3628 11.9375C76.5864 11.9375 75.8491 12.2622 75.1509 12.9116V18.5H73.7959ZM87.7925 12.377C87.2456 12.1133 86.6206 11.9814 85.9175 11.9814C84.3696 11.9814 83.5957 12.8042 83.5957 14.4497C83.5957 16.3979 84.3696 17.3721 85.9175 17.3721C86.6206 17.3721 87.2456 17.2769 87.7925 17.0864V12.377ZM89.1475 18.0386C88.2148 18.3462 87.0649 18.5 85.6978 18.5C83.4077 18.5 82.2627 17.167 82.2627 14.501C82.2627 12.04 83.4785 10.8096 85.9102 10.8096C86.5742 10.8096 87.2017 10.9316 87.7925 11.1758V8.02637H89.1475V18.0386ZM99.4014 18.1338C98.498 18.4268 97.5215 18.5732 96.4717 18.5732C92.8096 18.5732 90.9785 16.7544 90.9785 13.1167C90.9785 9.67432 92.8096 7.95312 96.4717 7.95312C97.5215 7.95312 98.498 8.09961 99.4014 8.39258V9.56445C98.498 9.22266 97.5703 9.05176 96.6182 9.05176C93.7617 9.05176 92.3335 10.4067 92.3335 13.1167C92.3335 16.022 93.7617 17.4746 96.6182 17.4746C97.5703 17.4746 98.498 17.3037 99.4014 16.9619V18.1338ZM101.496 18.1338V16.8887C102.595 17.2793 103.781 17.4746 105.056 17.4746C106.857 17.4746 107.758 16.8154 107.758 15.4971C107.758 14.374 107.094 13.8125 105.766 13.8125H104.418C102.226 13.8125 101.13 12.8604 101.13 10.9561C101.13 8.9541 102.534 7.95312 105.341 7.95312C106.562 7.95312 107.697 8.09961 108.747 8.39258V9.6377C107.697 9.24707 106.562 9.05176 105.341 9.05176C103.437 9.05176 102.485 9.68652 102.485 10.9561C102.485 12.0791 103.129 12.6406 104.418 12.6406H105.766C107.998 12.6406 109.113 13.5928 109.113 15.4971C109.113 17.5479 107.761 18.5732 105.056 18.5732C103.781 18.5732 102.595 18.4268 101.496 18.1338ZM110.944 18.1338V16.8887C112.043 17.2793 113.229 17.4746 114.504 17.4746C116.306 17.4746 117.207 16.8154 117.207 15.4971C117.207 14.374 116.542 13.8125 115.214 13.8125H113.867C111.674 13.8125 110.578 12.8604 110.578 10.9561C110.578 8.9541 111.982 7.95312 114.79 7.95312C116.01 7.95312 117.146 8.09961 118.195 8.39258V9.6377C117.146 9.24707 116.01 9.05176 114.79 9.05176C112.885 9.05176 111.933 9.68652 111.933 10.9561C111.933 12.0791 112.578 12.6406 113.867 12.6406H115.214C117.446 12.6406 118.562 13.5928 118.562 15.4971C118.562 17.5479 117.209 18.5732 114.504 18.5732C113.229 18.5732 112.043 18.4268 110.944 18.1338Z" fill="#F5F5DC"/>
</g>
<defs>
<filter id="filter0_d_503_55" x="-4" y="0" width="139" height="34" filterUnits="userSpaceOnUse" color-interpolation-filters="sRGB">
<feFlood flood-opacity="0" result="BackgroundImageFix"/>
<feColorMatrix in="SourceAlpha" type="matrix" values="0 0 0 0 0 0 0 0 0 0 0 0 0 0 0 0 0 0 127 0" result="hardAlpha"/>
<feOffset dy="4"/>
<feGaussianBlur stdDeviation="2"/>
<feComposite in2="hardAlpha" operator="out"/>
<feColorMatrix type="matrix" values="0 0 0 0 0 0 0 0 0 0 0 0 0 0 0 0 0 0 0.25 0"/>
<feBlend mode="normal" in2="BackgroundImageFix" result="effect1_dropShadow_503_55"/>
<feBlend mode="normal" in="SourceGraphic" in2="effect1_dropShadow_503_55" result="shape"/>
</filter>
<clipPath id="clip0_503_55">
<rect width="18" height="12" fill="white" transform="translate(11 7)"/>
</clipPath>
</defs>
</svg>
