<svg width="116" height="30" viewBox="0 0 116 30" fill="none" xmlns="http://www.w3.org/2000/svg">
<g filter="url(#filter0_d_503_59)">
<g clip-path="url(#clip0_503_59)">
<path fill-rule="evenodd" clip-rule="evenodd" d="M11.6574 4.5H27.8729C28.236 4.5 28.5303 4.78542 28.5303 5.1375V20.8625C28.5303 21.2146 28.236 21.5 27.8729 21.5H11.6574C11.2943 21.5 11 21.2146 11 20.8625V5.1375C11 4.78542 11.2943 4.5 11.6574 4.5ZM20.745 13.5443V12.15H14.5061V13.5443H16.7335V19.7523H18.5067V13.5443H20.745ZM21.4519 19.5883C21.7379 19.7297 22.0761 19.8358 22.4665 19.9064C22.8569 19.9771 23.2684 20.0125 23.701 20.0125C24.1226 20.0125 24.5231 19.9736 24.9025 19.8959C25.2819 19.8181 25.6146 19.69 25.9005 19.5115C26.1865 19.333 26.4129 19.0997 26.5797 18.8116C26.7465 18.5236 26.8299 18.1675 26.8299 17.7433C26.8299 17.4358 26.7822 17.1664 26.6869 16.9348C26.5916 16.7033 26.4541 16.4974 26.2745 16.3172C26.0949 16.1369 25.8795 15.9752 25.6283 15.8321C25.3772 15.6889 25.0941 15.5537 24.7788 15.4265C24.5478 15.3346 24.3407 15.2453 24.1574 15.1587C23.9741 15.0722 23.8183 14.9838 23.69 14.8937C23.5617 14.8035 23.4627 14.7081 23.3931 14.6073C23.3234 14.5067 23.2886 14.3926 23.2886 14.2654C23.2886 14.1487 23.3197 14.0436 23.3821 13.95C23.4444 13.8563 23.5323 13.7759 23.646 13.7087C23.7597 13.6416 23.8989 13.5894 24.0639 13.5523C24.2289 13.5152 24.4122 13.4967 24.6138 13.4967C24.7605 13.4967 24.9153 13.5073 25.0785 13.5284C25.2416 13.5497 25.4057 13.5824 25.5706 13.6265C25.7356 13.6707 25.896 13.7264 26.0518 13.7936C26.2076 13.8607 26.3515 13.9385 26.4835 14.0268V12.4416C26.2158 12.3426 25.9235 12.2693 25.6063 12.2216C25.2893 12.1739 24.9254 12.15 24.5148 12.15C24.0969 12.15 23.701 12.1933 23.3271 12.2799C22.9531 12.3665 22.6241 12.5017 22.34 12.6855C22.0559 12.8693 21.8313 13.1034 21.6664 13.3879C21.5014 13.6725 21.4189 14.0127 21.4189 14.4085C21.4189 14.914 21.5701 15.3452 21.8726 15.7021C22.1751 16.0591 22.6342 16.3614 23.2501 16.6088C23.4921 16.7042 23.7175 16.7979 23.9265 16.8898C24.1354 16.9817 24.3159 17.0771 24.4681 17.1761C24.6202 17.275 24.7403 17.3828 24.8283 17.4994C24.9163 17.6161 24.9603 17.7486 24.9603 17.8971C24.9603 18.0067 24.9327 18.1083 24.8777 18.2019C24.8227 18.2956 24.7393 18.3769 24.6275 18.4458C24.5157 18.5147 24.3765 18.5687 24.2097 18.6075C24.0429 18.6464 23.8476 18.6658 23.624 18.6658C23.2427 18.6658 22.8651 18.6014 22.4912 18.4724C22.1173 18.3434 21.7709 18.1498 21.4519 17.8918V19.5883Z" fill="#38BDF8"/>
</g>
<path d="M41.313 8.02637V9.125H38.0171V18.5H36.6621V9.125H33.3662V8.02637H41.313ZM41.8696 10.8096H43.3418L45.5171 16.8154L47.7656 10.8096H49.2012L46.0078 18.7271C45.4414 20.1235 44.5918 20.9951 43.459 21.3418L42.939 20.3823C43.7983 20.0063 44.4233 19.3936 44.814 18.5439L41.8696 10.8096ZM51.8306 16.9326C52.3628 17.1963 52.9561 17.3281 53.6104 17.3281C55.207 17.3281 56.0054 16.3687 56.0054 14.4497C56.0054 12.7749 55.2119 11.9375 53.625 11.9375C52.9414 11.9375 52.3433 11.9961 51.8306 12.1133V16.9326ZM50.4756 11.1245C51.4961 10.9146 52.5508 10.8096 53.6396 10.8096C56.1055 10.8096 57.3384 12.0278 57.3384 14.4644C57.3384 17.1548 56.0981 18.5 53.6177 18.5C53.0024 18.5 52.4067 18.3779 51.8306 18.1338V21.2832H50.4756V11.1245ZM62.3481 10.8096C64.5356 10.8096 65.6294 11.8911 65.6294 14.0542C65.6294 14.3618 65.6074 14.6914 65.5635 15.043H60.1655C60.1655 16.6152 61.0835 17.4014 62.9194 17.4014C63.7935 17.4014 64.5698 17.3037 65.2485 17.1084V18.207C64.5698 18.4023 63.7446 18.5 62.7729 18.5C60.1313 18.5 58.8105 17.189 58.8105 14.5669C58.8105 12.062 59.9897 10.8096 62.3481 10.8096ZM60.1655 13.915H64.3257C64.2964 12.5674 63.6372 11.8936 62.3481 11.8936C60.981 11.8936 60.2534 12.5674 60.1655 13.915ZM67.3799 18.1338V16.9619C68.2832 17.2549 69.1963 17.4014 70.1191 17.4014C71.3447 17.4014 71.9575 17.0352 71.9575 16.3027C71.9575 15.6191 71.5303 15.2773 70.6758 15.2773H69.5771C67.917 15.2773 67.0869 14.5205 67.0869 13.0068C67.0869 11.542 68.1538 10.8096 70.2876 10.8096C71.2056 10.8096 72.1162 10.9316 73.0195 11.1758V12.3477C72.1162 12.0547 71.2056 11.9082 70.2876 11.9082C69.0083 11.9082 68.3687 12.2744 68.3687 13.0068C68.3687 13.6904 68.7715 14.0322 69.5771 14.0322H70.6758C72.4336 14.0322 73.3125 14.7891 73.3125 16.3027C73.3125 17.7676 72.248 18.5 70.1191 18.5C69.1963 18.5 68.2832 18.3779 67.3799 18.1338ZM80.9297 18.2803C80.2949 18.4268 79.6113 18.5 78.8789 18.5C76.1445 18.5 74.7773 17.1694 74.7773 14.5083C74.7773 12.0425 76.1445 10.8096 78.8789 10.8096C79.6113 10.8096 80.2949 10.8828 80.9297 11.0293V12.1279C80.2949 11.9814 79.5869 11.9082 78.8057 11.9082C77.0234 11.9082 76.1323 12.7749 76.1323 14.5083C76.1323 16.437 77.0234 17.4014 78.8057 17.4014C79.5869 17.4014 80.2949 17.3281 80.9297 17.1816V18.2803ZM82.6582 18.5V10.8096H83.5737L83.8154 11.791C84.4893 11.1367 85.2998 10.8096 86.2471 10.8096V11.9375C85.3291 11.9375 84.5845 12.2622 84.0132 12.9116V18.5H82.6582ZM89.1108 10.8096V18.5H87.7559V10.8096H89.1108ZM89.1108 8.02637V9.30811H87.7559V8.02637H89.1108ZM92.8169 16.9326C93.3491 17.1963 93.9424 17.3281 94.5967 17.3281C96.1934 17.3281 96.9917 16.3687 96.9917 14.4497C96.9917 12.7749 96.1982 11.9375 94.6113 11.9375C93.9277 11.9375 93.3296 11.9961 92.8169 12.1133V16.9326ZM91.4619 11.1245C92.4824 10.9146 93.5371 10.8096 94.626 10.8096C97.0918 10.8096 98.3247 12.0278 98.3247 14.4644C98.3247 17.1548 97.0845 18.5 94.604 18.5C93.9888 18.5 93.3931 18.3779 92.8169 18.1338V21.2832H91.4619V11.1245ZM100.163 9.56445H101.013L101.306 10.8096H103.386V11.9082H101.518V16.3247C101.518 17.0425 101.828 17.4014 102.448 17.4014H103.386V18.5H102.097C100.808 18.5 100.163 17.8091 100.163 16.4272V9.56445Z" fill="#F5F5DC"/>
</g>
<defs>
<filter id="filter0_d_503_59" x="-4" y="0" width="124" height="34" filterUnits="userSpaceOnUse" color-interpolation-filters="sRGB">
<feFlood flood-opacity="0" result="BackgroundImageFix"/>
<feColorMatrix in="SourceAlpha" type="matrix" values="0 0 0 0 0 0 0 0 0 0 0 0 0 0 0 0 0 0 127 0" result="hardAlpha"/>
<feOffset dy="4"/>
<feGaussianBlur stdDeviation="2"/>
<feComposite in2="hardAlpha" operator="out"/>
<feColorMatrix type="matrix" values="0 0 0 0 0 0 0 0 0 0 0 0 0 0 0 0 0 0 0.25 0"/>
<feBlend mode="normal" in2="BackgroundImageFix" result="effect1_dropShadow_503_59"/>
<feBlend mode="normal" in="SourceGraphic" in2="effect1_dropShadow_503_59" result="shape"/>
</filter>
<clipPath id="clip0_503_59">
<rect width="18" height="17" fill="white" transform="translate(11 4.5)"/>
</clipPath>
</defs>
</svg>
