<svg width="49" height="77" viewBox="0 0 49 77" fill="none" xmlns="http://www.w3.org/2000/svg">
<g filter="url(#filter0_d_233_764)">
<path d="M16.8132 20.6752C17.2927 20.6772 17.7521 20.8861 18.0918 21.2568L32.5676 37.1234C32.9094 37.4934 33.1016 37.9983 33.1016 38.5248C33.1016 39.0517 32.9094 39.5562 32.5676 39.9266L18.0918 55.7931V55.7928C17.63 56.2645 16.9772 56.4384 16.3694 56.2514C15.7616 56.0644 15.2865 55.5438 15.116 54.8779C14.9457 54.2116 15.104 53.4961 15.5344 52.99L28.7314 38.5251L15.5344 24.0602C15.1926 23.6902 15.0002 23.1853 15.0002 22.6587C15.0002 22.1319 15.1926 21.6274 15.5344 21.257C15.8741 20.8863 16.3339 20.6773 16.8133 20.6754L16.8132 20.6752Z" fill="black"/>
</g>
<defs>
<filter id="filter0_d_233_764" x="-4" y="0.675293" width="56.1016" height="83.6499" filterUnits="userSpaceOnUse" color-interpolation-filters="sRGB">
<feFlood flood-opacity="0" result="BackgroundImageFix"/>
<feColorMatrix in="SourceAlpha" type="matrix" values="0 0 0 0 0 0 0 0 0 0 0 0 0 0 0 0 0 0 127 0" result="hardAlpha"/>
<feOffset dy="4"/>
<feGaussianBlur stdDeviation="2"/>
<feComposite in2="hardAlpha" operator="out"/>
<feColorMatrix type="matrix" values="0 0 0 0 0 0 0 0 0 0 0 0 0 0 0 0 0 0 0.25 0"/>
<feBlend mode="normal" in2="BackgroundImageFix" result="effect1_dropShadow_233_764"/>
<feBlend mode="normal" in="SourceGraphic" in2="effect1_dropShadow_233_764" result="shape"/>
</filter>
</defs>
</svg>
