<svg width="1728" height="1216" viewBox="0 0 1728 1216" fill="none" xmlns="http://www.w3.org/2000/svg">
<g filter="url(#filter0_i_181_213)">
<g filter="url(#filter1_i_181_213)">
<path d="M0 53.1156V1146.29C0 1146.29 217.32 1132.31 356.826 1132.83C673.569 1134 845.353 1199.3 1161.69 1212.05C1382.56 1220.94 1728 1212.05 1728 1212.05V0C1633.73 63.8179 1522.57 26.4765 1403.54 63.8179C1260.76 108.609 1176.77 49.0933 1030.12 63.8179C888.83 78.0037 812.659 113.245 670.424 113.366C527.306 113.488 451.254 55.7404 308.441 63.8179C222.404 68.6842 174.165 124.063 91.983 101.475C51.9306 90.4656 0 53.1156 0 53.1156Z" fill="#FFAC00"/>
</g>
</g>
<defs>
<filter id="filter0_i_181_213" x="0" y="0" width="1728" height="1220" filterUnits="userSpaceOnUse" color-interpolation-filters="sRGB">
<feFlood flood-opacity="0" result="BackgroundImageFix"/>
<feBlend mode="normal" in="SourceGraphic" in2="BackgroundImageFix" result="shape"/>
<feColorMatrix in="SourceAlpha" type="matrix" values="0 0 0 0 0 0 0 0 0 0 0 0 0 0 0 0 0 0 127 0" result="hardAlpha"/>
<feOffset dy="4"/>
<feGaussianBlur stdDeviation="2"/>
<feComposite in2="hardAlpha" operator="arithmetic" k2="-1" k3="1"/>
<feColorMatrix type="matrix" values="0 0 0 0 0 0 0 0 0 0 0 0 0 0 0 0 0 0 0.25 0"/>
<feBlend mode="normal" in2="shape" result="effect1_innerShadow_181_213"/>
</filter>
<filter id="filter1_i_181_213" x="0" y="0" width="1728" height="1220" filterUnits="userSpaceOnUse" color-interpolation-filters="sRGB">
<feFlood flood-opacity="0" result="BackgroundImageFix"/>
<feBlend mode="normal" in="SourceGraphic" in2="BackgroundImageFix" result="shape"/>
<feColorMatrix in="SourceAlpha" type="matrix" values="0 0 0 0 0 0 0 0 0 0 0 0 0 0 0 0 0 0 127 0" result="hardAlpha"/>
<feOffset dy="4"/>
<feGaussianBlur stdDeviation="2"/>
<feComposite in2="hardAlpha" operator="arithmetic" k2="-1" k3="1"/>
<feColorMatrix type="matrix" values="0 0 0 0 0 0 0 0 0 0 0 0 0 0 0 0 0 0 0.25 0"/>
<feBlend mode="normal" in2="shape" result="effect1_innerShadow_181_213"/>
</filter>
</defs>
</svg>
