<svg width="1728" height="2004" viewBox="0 0 1728 2004" fill="none" xmlns="http://www.w3.org/2000/svg">
<g filter="url(#filter0_i_492_685)">
<path d="M39.1215 1241.5C40.3918 1243.06 40.3918 1243.06 41.217 1245.05C40.4386 1248.8 39.8113 1249.61 37.3187 1252.32C29.8259 1260.72 29.8259 1260.72 25.8056 1270.91C25.455 1273.22 25.455 1273.22 22.606 1276.03C21.4221 1274.74 21.4221 1274.74 20.5105 1272.48C21.5174 1266.24 24.3433 1261.71 27.7951 1256.47C29.3617 1254.19 29.3617 1254.19 29.1501 1251.33C30.8981 1247.25 32.847 1244.31 36.2931 1241.48C37.2265 1241.49 38.1599 1241.5 39.1215 1241.5Z" fill="#F5F5DC"/>
</g>
<g filter="url(#filter1_i_492_685)">
<g filter="url(#filter2_i_492_685)">
<path d="M0 53.1156V1146.29C0 1146.29 217.32 1132.31 356.826 1132.83C673.569 1134 845.353 1199.3 1161.69 1212.05C1382.56 1220.94 1728 1212.05 1728 1212.05V0C1633.73 63.8179 1522.57 26.4765 1403.54 63.8179C1260.76 108.609 1176.77 49.0933 1030.12 63.8179C888.83 78.0037 812.659 113.245 670.424 113.366C527.306 113.488 451.254 55.7404 308.441 63.8179C222.404 68.6842 174.165 124.063 91.983 101.475C51.9306 90.4656 0 53.1156 0 53.1156Z" fill="#FFAC00"/>
</g>
</g>
<path d="M1405 1216C1285 1212 1728 1212 1728 1212C1728 1212 1726.96 1223.01 1723 1244C1717.85 1271.31 1708.65 1256.21 1708.5 1284C1708.34 1313.76 1687.47 1308.72 1675 1329C1663.02 1348.47 1675.86 1377.96 1653 1378C1622.99 1378.06 1610.99 1367.34 1602 1320.5C1596.5 1291.85 1576.23 1291.49 1564 1265C1555 1245.5 1528.26 1228.72 1502.5 1235.5C1483.5 1240.5 1443.81 1217.29 1405 1216Z" fill="#FFAC00"/>
<path d="M1694.33 1370.63C1701.24 1367.36 1700.21 1376.29 1701.31 1381.08C1702.72 1387.23 1703.58 1395.95 1697.32 1396.75C1692.9 1397.31 1690.17 1394.2 1687.84 1390.4C1683.59 1383.48 1685.34 1374.88 1694.33 1370.63Z" fill="#FFAC00"/>
<path d="M1645.5 1415C1651.28 1415.54 1647.51 1422.23 1651.5 1428.59C1654.86 1433.94 1648.16 1437.83 1643.5 1437.5C1638.72 1437.16 1635.85 1431.39 1637 1427.09C1639 1419.59 1639.75 1414.46 1645.5 1415Z" fill="#FFAC00"/>
<path d="M1621.75 1602.04C1627.53 1602.58 1623.76 1609.27 1627.75 1615.63C1631.11 1620.98 1629.68 1626.57 1625 1629.5C1618.6 1633.51 1612.11 1618.43 1613.25 1614.13C1615.25 1606.63 1616.01 1601.5 1621.75 1602.04Z" fill="#FFAC00"/>
<path d="M1577.42 1304.4C1581.95 1302.01 1583.12 1310.99 1583.84 1314.49C1584.77 1318.99 1581.52 1325.39 1577.42 1325.97C1574.53 1326.38 1573.35 1322.19 1574.35 1318.51C1576.68 1309.88 1571.53 1307.5 1577.42 1304.4Z" fill="#FFAC00"/>
<path d="M1607.34 1378.04C1609.25 1378.44 1608.33 1382.62 1609.35 1383.96C1610.68 1385.69 1609.8 1387.65 1608.12 1387.96C1606.94 1388.18 1605.67 1387.54 1606.08 1385.58C1607.03 1380.97 1605.05 1377.57 1607.34 1378.04Z" fill="#FFAC00"/>
<path d="M1673.42 1982.4C1677.95 1980.01 1679.12 1988.99 1679.84 1992.49C1680.77 1996.99 1677.52 2003.39 1673.42 2003.97C1670.53 2004.38 1669.35 2000.19 1670.35 1996.51C1672.68 1987.88 1667.53 1985.5 1673.42 1982.4Z" fill="#FFAC00"/>
<path d="M1697 1808.03C1698.44 1808.31 1697.75 1811.24 1698.52 1812.17C1699.51 1813.38 1698.85 1814.75 1697.59 1814.97C1696.7 1815.12 1695.75 1814.68 1696.06 1813.3C1696.77 1810.08 1695.29 1807.7 1697 1808.03Z" fill="#FFAC00"/>
<g filter="url(#filter3_i_492_685)">
<path d="M90.5682 1012.01C102.364 1007.21 110.606 1027.12 107.982 1039.59C107.485 1041.94 107.559 1043.63 105.926 1045.4C103.603 1047.92 100.81 1047.4 97.3815 1047.42C87.936 1047.45 80.1255 1041.72 78.3983 1032.43C77.5841 1028.05 77.5925 1024.94 79.8949 1021.13C81.1448 1019.06 82.4592 1018.36 84.1703 1016.65C85.046 1015.78 86.44 1014.44 86.44 1014.44C86.44 1014.44 88.8358 1012.72 90.5682 1012.01Z" fill="#F5F5DC"/>
</g>
<defs>
<filter id="filter0_i_492_685" x="20.5105" y="1241.48" width="20.7065" height="38.5496" filterUnits="userSpaceOnUse" color-interpolation-filters="sRGB">
<feFlood flood-opacity="0" result="BackgroundImageFix"/>
<feBlend mode="normal" in="SourceGraphic" in2="BackgroundImageFix" result="shape"/>
<feColorMatrix in="SourceAlpha" type="matrix" values="0 0 0 0 0 0 0 0 0 0 0 0 0 0 0 0 0 0 127 0" result="hardAlpha"/>
<feOffset dy="4"/>
<feGaussianBlur stdDeviation="2"/>
<feComposite in2="hardAlpha" operator="arithmetic" k2="-1" k3="1"/>
<feColorMatrix type="matrix" values="0 0 0 0 0 0 0 0 0 0 0 0 0 0 0 0 0 0 0.25 0"/>
<feBlend mode="normal" in2="shape" result="effect1_innerShadow_492_685"/>
</filter>
<filter id="filter1_i_492_685" x="0" y="0" width="1728" height="1220" filterUnits="userSpaceOnUse" color-interpolation-filters="sRGB">
<feFlood flood-opacity="0" result="BackgroundImageFix"/>
<feBlend mode="normal" in="SourceGraphic" in2="BackgroundImageFix" result="shape"/>
<feColorMatrix in="SourceAlpha" type="matrix" values="0 0 0 0 0 0 0 0 0 0 0 0 0 0 0 0 0 0 127 0" result="hardAlpha"/>
<feOffset dy="4"/>
<feGaussianBlur stdDeviation="2"/>
<feComposite in2="hardAlpha" operator="arithmetic" k2="-1" k3="1"/>
<feColorMatrix type="matrix" values="0 0 0 0 0 0 0 0 0 0 0 0 0 0 0 0 0 0 0.25 0"/>
<feBlend mode="normal" in2="shape" result="effect1_innerShadow_492_685"/>
</filter>
<filter id="filter2_i_492_685" x="0" y="0" width="1728" height="1220" filterUnits="userSpaceOnUse" color-interpolation-filters="sRGB">
<feFlood flood-opacity="0" result="BackgroundImageFix"/>
<feBlend mode="normal" in="SourceGraphic" in2="BackgroundImageFix" result="shape"/>
<feColorMatrix in="SourceAlpha" type="matrix" values="0 0 0 0 0 0 0 0 0 0 0 0 0 0 0 0 0 0 127 0" result="hardAlpha"/>
<feOffset dy="4"/>
<feGaussianBlur stdDeviation="2"/>
<feComposite in2="hardAlpha" operator="arithmetic" k2="-1" k3="1"/>
<feColorMatrix type="matrix" values="0 0 0 0 0 0 0 0 0 0 0 0 0 0 0 0 0 0 0.25 0"/>
<feBlend mode="normal" in2="shape" result="effect1_innerShadow_492_685"/>
</filter>
<filter id="filter3_i_492_685" x="77.9069" y="1011.28" width="30.5638" height="40.175" filterUnits="userSpaceOnUse" color-interpolation-filters="sRGB">
<feFlood flood-opacity="0" result="BackgroundImageFix"/>
<feBlend mode="normal" in="SourceGraphic" in2="BackgroundImageFix" result="shape"/>
<feColorMatrix in="SourceAlpha" type="matrix" values="0 0 0 0 0 0 0 0 0 0 0 0 0 0 0 0 0 0 127 0" result="hardAlpha"/>
<feOffset dy="4"/>
<feGaussianBlur stdDeviation="2"/>
<feComposite in2="hardAlpha" operator="arithmetic" k2="-1" k3="1"/>
<feColorMatrix type="matrix" values="0 0 0 0 0 0 0 0 0 0 0 0 0 0 0 0 0 0 0.25 0"/>
<feBlend mode="normal" in2="shape" result="effect1_innerShadow_492_685"/>
</filter>
</defs>
</svg>
