<svg width="1728" height="2001" viewBox="0 0 1728 2001" fill="none" xmlns="http://www.w3.org/2000/svg">
<g filter="url(#filter0_i_492_685)">
<path d="M39.1215 1239.64C40.3918 1241.2 40.3918 1241.2 41.217 1243.19C40.4386 1246.93 39.8113 1247.74 37.3187 1250.44C29.8259 1258.83 29.8259 1258.83 25.8056 1269.01C25.455 1271.32 25.455 1271.32 22.606 1274.12C21.4221 1272.83 21.4221 1272.83 20.5105 1270.58C21.5174 1264.34 24.3433 1259.82 27.7951 1254.59C29.3617 1252.32 29.3617 1252.32 29.1501 1249.46C30.8981 1245.38 32.847 1242.45 36.2931 1239.62C37.2265 1239.63 38.1599 1239.64 39.1215 1239.64Z" fill="#F5F5DC"/>
</g>
<g filter="url(#filter1_i_492_685)">
<g filter="url(#filter2_i_492_685)">
<path d="M0 51.8051V1118.01C0 1118.01 217.32 1104.37 356.826 1104.88C673.569 1106.02 845.353 1169.71 1161.69 1182.14C1382.56 1190.82 1728 1182.14 1728 1182.14V0C1633.73 62.2435 1522.57 25.8233 1403.54 62.2435C1260.76 105.93 1176.77 47.8821 1030.12 62.2435C888.83 76.0793 812.659 110.451 670.424 110.569C527.306 110.688 451.254 54.3652 308.441 62.2435C222.404 66.9897 174.165 121.002 91.983 98.971C51.9306 88.2337 0 51.8051 0 51.8051Z" fill="#FFAC00"/>
</g>
</g>
<path d="M1405 1185.18C1285 1181.19 1728 1181.19 1728 1181.19C1728 1181.19 1726.96 1192.18 1723 1213.14C1717.85 1240.4 1708.65 1225.33 1708.5 1253.08C1708.34 1282.8 1687.47 1277.76 1675 1298.01C1663.02 1317.45 1675.86 1346.89 1653 1346.94C1622.99 1346.99 1610.99 1336.29 1602 1289.52C1596.5 1260.92 1576.23 1260.55 1564 1234.11C1555 1214.64 1528.26 1197.88 1502.5 1204.65C1483.5 1209.64 1443.81 1186.47 1405 1185.18Z" fill="#FFAC00"/>
<path d="M1694.33 1368.58C1701.24 1365.31 1700.21 1374.23 1701.31 1379.01C1702.72 1385.15 1703.58 1393.86 1697.32 1394.65C1692.9 1395.21 1690.17 1392.11 1687.84 1388.32C1683.59 1381.4 1685.34 1372.82 1694.33 1368.58Z" fill="#FFAC00"/>
<path d="M1645.5 1412.88C1651.28 1413.43 1647.51 1420.1 1651.5 1426.45C1654.86 1431.79 1648.16 1435.68 1643.5 1435.35C1638.72 1435.01 1635.85 1429.25 1637 1424.95C1639 1417.46 1639.75 1412.34 1645.5 1412.88Z" fill="#FFAC00"/>
<path d="M1621.75 1599.64C1627.53 1600.18 1623.76 1606.86 1627.75 1613.21C1631.11 1618.55 1629.68 1624.13 1625 1627.06C1618.6 1631.07 1612.11 1616.01 1613.25 1611.71C1615.25 1604.22 1616.01 1599.1 1621.75 1599.64Z" fill="#FFAC00"/>
<path d="M1577.42 1302.45C1581.95 1300.06 1583.12 1309.03 1583.84 1312.52C1584.77 1317.02 1581.52 1323.41 1577.42 1323.99C1574.53 1324.4 1573.35 1320.21 1574.35 1316.54C1576.68 1307.92 1571.53 1305.55 1577.42 1302.45Z" fill="#FFAC00"/>
<path d="M1607.34 1375.98C1609.25 1376.38 1608.33 1380.55 1609.35 1381.89C1610.68 1383.62 1609.8 1385.57 1608.12 1385.88C1606.94 1386.1 1605.67 1385.46 1606.08 1383.5C1607.03 1378.9 1605.05 1375.51 1607.34 1375.98Z" fill="#FFAC00"/>
<path d="M1673.42 1979.43C1677.95 1977.05 1679.12 1986.01 1679.84 1989.51C1680.77 1994 1677.52 2000.39 1673.42 2000.97C1670.53 2001.38 1669.35 1997.19 1670.35 1993.52C1672.68 1984.91 1667.53 1982.53 1673.42 1979.43Z" fill="#FFAC00"/>
<path d="M1697 1805.32C1698.44 1805.6 1697.75 1808.52 1698.52 1809.46C1699.51 1810.67 1698.85 1812.04 1697.59 1812.25C1696.7 1812.41 1695.75 1811.96 1696.06 1810.59C1696.77 1807.37 1695.29 1804.99 1697 1805.32Z" fill="#FFAC00"/>
<g filter="url(#filter3_i_492_685)">
<path d="M90.5682 1010.5C102.364 1005.7 110.606 1025.58 107.982 1038.03C107.485 1040.38 107.559 1042.07 105.926 1043.84C103.603 1046.35 100.81 1045.84 97.3815 1045.85C87.936 1045.88 80.1255 1040.16 78.3983 1030.88C77.5841 1026.51 77.5925 1023.4 79.8949 1019.6C81.1448 1017.53 82.4592 1016.83 84.1703 1015.13C85.046 1014.25 86.44 1012.92 86.44 1012.92C86.44 1012.92 88.8358 1011.2 90.5682 1010.5Z" fill="#F5F5DC"/>
</g>
<defs>
<filter id="filter0_i_492_685" x="20.5105" y="1239.62" width="20.7065" height="38.4978" filterUnits="userSpaceOnUse" color-interpolation-filters="sRGB">
<feFlood flood-opacity="0" result="BackgroundImageFix"/>
<feBlend mode="normal" in="SourceGraphic" in2="BackgroundImageFix" result="shape"/>
<feColorMatrix in="SourceAlpha" type="matrix" values="0 0 0 0 0 0 0 0 0 0 0 0 0 0 0 0 0 0 127 0" result="hardAlpha"/>
<feOffset dy="4"/>
<feGaussianBlur stdDeviation="2"/>
<feComposite in2="hardAlpha" operator="arithmetic" k2="-1" k3="1"/>
<feColorMatrix type="matrix" values="0 0 0 0 0 0 0 0 0 0 0 0 0 0 0 0 0 0 0.25 0"/>
<feBlend mode="normal" in2="shape" result="effect1_innerShadow_492_685"/>
</filter>
<filter id="filter1_i_492_685" x="0" y="0" width="1728" height="1190" filterUnits="userSpaceOnUse" color-interpolation-filters="sRGB">
<feFlood flood-opacity="0" result="BackgroundImageFix"/>
<feBlend mode="normal" in="SourceGraphic" in2="BackgroundImageFix" result="shape"/>
<feColorMatrix in="SourceAlpha" type="matrix" values="0 0 0 0 0 0 0 0 0 0 0 0 0 0 0 0 0 0 127 0" result="hardAlpha"/>
<feOffset dy="4"/>
<feGaussianBlur stdDeviation="2"/>
<feComposite in2="hardAlpha" operator="arithmetic" k2="-1" k3="1"/>
<feColorMatrix type="matrix" values="0 0 0 0 0 0 0 0 0 0 0 0 0 0 0 0 0 0 0.25 0"/>
<feBlend mode="normal" in2="shape" result="effect1_innerShadow_492_685"/>
</filter>
<filter id="filter2_i_492_685" x="0" y="0" width="1728" height="1190" filterUnits="userSpaceOnUse" color-interpolation-filters="sRGB">
<feFlood flood-opacity="0" result="BackgroundImageFix"/>
<feBlend mode="normal" in="SourceGraphic" in2="BackgroundImageFix" result="shape"/>
<feColorMatrix in="SourceAlpha" type="matrix" values="0 0 0 0 0 0 0 0 0 0 0 0 0 0 0 0 0 0 127 0" result="hardAlpha"/>
<feOffset dy="4"/>
<feGaussianBlur stdDeviation="2"/>
<feComposite in2="hardAlpha" operator="arithmetic" k2="-1" k3="1"/>
<feColorMatrix type="matrix" values="0 0 0 0 0 0 0 0 0 0 0 0 0 0 0 0 0 0 0.25 0"/>
<feBlend mode="normal" in2="shape" result="effect1_innerShadow_492_685"/>
</filter>
<filter id="filter3_i_492_685" x="77.9069" y="1009.76" width="30.5638" height="40.1206" filterUnits="userSpaceOnUse" color-interpolation-filters="sRGB">
<feFlood flood-opacity="0" result="BackgroundImageFix"/>
<feBlend mode="normal" in="SourceGraphic" in2="BackgroundImageFix" result="shape"/>
<feColorMatrix in="SourceAlpha" type="matrix" values="0 0 0 0 0 0 0 0 0 0 0 0 0 0 0 0 0 0 127 0" result="hardAlpha"/>
<feOffset dy="4"/>
<feGaussianBlur stdDeviation="2"/>
<feComposite in2="hardAlpha" operator="arithmetic" k2="-1" k3="1"/>
<feColorMatrix type="matrix" values="0 0 0 0 0 0 0 0 0 0 0 0 0 0 0 0 0 0 0.25 0"/>
<feBlend mode="normal" in2="shape" result="effect1_innerShadow_492_685"/>
</filter>
</defs>
</svg>
