<svg width="61" height="61" viewBox="0 0 61 61" fill="none" xmlns="http://www.w3.org/2000/svg">
<path fill-rule="evenodd" clip-rule="evenodd" d="M48.0528 9.96831C45.4758 7.33646 41.8005 6.3657 38.2028 7.38943C37.1902 7.67756 36.1357 7.09025 35.8477 6.07765C35.5595 5.06505 36.1468 4.01059 37.1594 3.72247C42.0857 2.32077 47.2107 3.659 50.7769 7.30098C51.5135 8.05321 51.5008 9.26012 50.7485 9.99667C49.9961 10.7332 48.7893 10.7205 48.0528 9.96831ZM28.4423 8.40887C27.8981 7.47587 26.3126 6.91007 24.702 7.83054C23.0973 8.74765 22.8151 10.3642 23.3497 11.281L29.769 22.2892C30.2995 23.1987 29.9919 24.3659 29.0825 24.8962C28.1731 25.4266 27.006 25.1192 26.4755 24.2098L20.0563 13.2015C20.0559 13.201 20.0566 13.2021 20.0563 13.2015L17.9165 9.53211C17.3724 8.59911 15.7869 8.03331 14.1763 8.95378C12.5716 9.87089 12.2894 11.4875 12.8239 12.4042L22.453 28.9166C22.9834 29.826 22.676 30.9934 21.7666 31.5236C20.8571 32.054 19.6899 31.7467 19.1596 30.8371L14.88 23.4983C14.3359 22.5653 12.7504 21.9995 11.1398 22.92C9.53513 23.8371 9.2529 25.4536 9.78749 26.3703L19.4166 42.8828C23.506 49.8955 33.5973 52.1713 42.1551 47.2804C50.7068 42.393 53.7469 32.6292 49.667 25.6328L43.2475 14.6245C42.7033 13.6915 41.1178 13.1257 39.5074 14.0461C37.9026 14.9632 37.6205 16.5798 38.155 17.4966L42.4347 24.8354C42.6906 25.2747 42.7608 25.798 42.6291 26.289C42.4974 26.7803 42.1752 27.1984 41.7337 27.4508C37.8134 29.6913 36.612 34.0236 38.3281 36.9668C38.8585 37.8765 38.5513 39.0436 37.6418 39.5738C36.7324 40.1042 35.565 39.797 35.0349 38.8875C32.3425 34.2706 34.0373 28.5602 38.2457 25.2207L28.4423 8.40887ZM35.3765 12.7317L31.7355 6.48834C29.9162 3.36819 25.831 2.79405 22.8103 4.52048C21.8793 5.05255 21.0874 5.7819 20.4904 6.62808C18.4569 4.38917 14.9549 4.11757 12.2846 5.64371C9.25781 7.37352 7.70157 11.1884 9.53053 14.3248L12.0777 18.6928C11.0991 18.7991 10.1284 19.1068 9.2481 19.6099C6.22136 21.3398 4.66512 25.1546 6.49408 28.2911L16.1231 44.8033C21.488 54.0031 34.0787 56.2873 44.0468 50.5904C54.0206 44.8902 58.3346 32.9284 52.9602 23.7122L46.541 12.7039C44.7214 9.58378 40.6364 9.00964 37.6157 10.7361C36.7258 11.2445 35.9633 11.9331 35.3765 12.7317ZM11.219 45.3917C12.1284 44.8615 13.2956 45.1688 13.8259 46.0782C15.9275 49.6823 19.1404 52.4074 23.1026 54.1759C24.064 54.605 24.4955 55.7322 24.0664 56.6937C23.6373 57.655 22.5102 58.0865 21.5488 57.6575C16.9445 55.6026 13.0817 52.3701 10.5325 47.9987C10.0022 47.0892 10.3095 45.9221 11.219 45.3917Z" fill="#FFD3B1"/>
</svg>
